# File created by Blade
# Date/Time:  Tue Apr 07 21:12:45 2015
#---------------------------------------------------------
:version 1.10
:name HOM
:units
  mass 1.0
  length 1.000000
  angle deg
:documentation
     Acclaim Skeleton File
:root
   axis xyz
   order TX TY TZ RX RY RZ
   position 0.000000 0.000000 0.000000
   orientation 0 0 0
:bonedata
   begin
      id 1
      name Spine_dum
      direction 0.000000 1.000000 0.000000
      length 4.885285
      axis 0.0 0.0 0.0 xyz
   end
   begin
      id 2
      name LeftUpLeg_dum
      direction 1.000000 0.000000 0.000000
      length 2.672193
      axis 0.0 0.0 0.0 xyz
   end
   begin
      id 3
      name RightUpLeg_dum
      direction -1.000000 0.000000 0.000000
      length 2.672193
      axis 0.0 0.0 0.0 xyz
   end
   begin
      id 4
      name Spine
      direction 0.000000 1.000000 0.000000
      length 0.000000
      axis 0.0 0.0 0.0 xyz
      dof rx ry rz
   end
   begin
      id 5
      name Spine_dum1
      direction 0.000000 1.000000 0.000000
      length 16.494159
      axis 0.0 0.0 0.0 xyz
   end
   begin
      id 6
      name Spine_dum2
      direction 0.000000 1.000000 0.000000
      length 10.663448
      axis 0.0 0.0 0.0 xyz
   end
   begin
      id 7
      name Spine_dum3
      direction 0.000000 1.000000 0.000000
      length 10.663448
      axis 0.0 0.0 0.0 xyz
   end
   begin
      id 8
      name Head
      direction 0.000000 1.000000 0.000000
      length 4.527550
      axis 0.0 0.0 0.0 xyz
      dof rx ry rz
   end
   begin
      id 9
      name LeftShoulder
      direction 1.000000 0.000000 0.000000
      length 7.531907
      axis 0.0 0.0 -90.0 xyz
      dof rx ry rz
   end
   begin
      id 10
      name LeftArm
      direction 1.000000 0.000000 0.000000
      length 10.229199
      axis 0.0 0.0 -90.0 xyz
      dof rx ry rz
   end
   begin
      id 11
      name LeftForeArm
      direction 1.000000 0.000000 0.000000
      length 8.673495
      axis 0.0 0.0 -90.0 xyz
      dof ry rz rx
   end
   begin
      id 12
      name LeftHand
      direction 0.000000 0.000000 0.000000
      length 0.000000
      axis 0.0 0.0 -90.0 xyz
      dof rx ry rz
   end
   begin
      id 13
      name LeftHand_dum1
      direction 0.000000 0.000000 0.000000
      length 0.000000
      axis 0.0 0.0 -90.0 xyz
   end
   begin
      id 14
      name LeftHand_dum2
      direction 1.000000 0.000000 0.000000
      length 3.937000
      axis 0.0 0.0 -90.0 xyz
   end
   begin
      id 15
      name LeftHandThumb1
      direction 0.000000 0.000000 1.000000
      length 3.937000
      axis 0.0 0.0 -90.0 xyz
      dof rx rz ry
   end
   begin
      id 16
      name RightShoulder
      direction -1.000000 0.000000 0.000000
      length 7.531907
      axis 0.0 0.0 90.0 xyz
      dof rx ry rz
   end
   begin
      id 17
      name RightArm
      direction -1.000000 0.000000 0.000000
      length 10.229199
      axis 0.0 0.0 90.0 xyz
      dof rx ry rz
   end
   begin
      id 18
      name RightForeArm
      direction -1.000000 0.000000 0.000000
      length 8.673495
      axis 0.0 0.0 90.0 xyz
      dof ry rz rx
   end
   begin
      id 19
      name RightHand
      direction 0.000000 0.000000 0.000000
      length 0.000000
      axis 0.0 0.0 90.0 xyz
      dof rx ry rz
   end
   begin
      id 20
      name RightHand_dum1
      direction 0.000000 0.000000 0.000000
      length 0.000000
      axis 0.0 0.0 90.0 xyz
   end
   begin
      id 21
      name RightHand_dum2
      direction -1.000000 0.000000 0.000000
      length 3.937000
      axis 0.0 0.0 90.0 xyz
   end
   begin
      id 22
      name RightHandThumb1
      direction 0.000000 0.000000 1.000000
      length 3.937000
      axis 0.0 0.0 90.0 xyz
      dof rx rz ry
   end
   begin
      id 23
      name LeftUpLeg
      direction 0.000000 -1.000000 0.000000
      length 16.263388
      axis 0.0 0.0 0.0 xyz
      dof rx ry rz
   end
   begin
      id 24
      name LeftLeg
      direction 0.000000 -1.000000 0.000000
      length 14.328163
      axis 0.0 0.0 0.0 xyz
      dof rx ry rz
   end
   begin
      id 25
      name LeftFoot
      direction 0.000000 -0.258819 0.965926
      length 5.031290
      axis 15.0 0.0 0.0 xyz
      dof rx ry rz
   end
   begin
      id 26
      name LeftToeBase
      direction 0.000000 0.000000 1.000000
      length 2.952750
      axis 0.0 0.0 0.0 xyz
      dof rx ry rz
   end
   begin
      id 27
      name RightUpLeg
      direction 0.000000 -1.000000 0.000000
      length 16.263388
      axis 0.0 0.0 0.0 xyz
      dof rx ry rz
   end
   begin
      id 28
      name RightLeg
      direction 0.000000 -1.000000 0.000000
      length 14.328163
      axis 0.0 0.0 0.0 xyz
      dof rx ry rz
   end
   begin
      id 29
      name RightFoot
      direction 0.000000 -0.258819 0.965926
      length 5.031290
      axis 15.0 0.0 0.0 xyz
      dof rx ry rz
   end
   begin
      id 30
      name RightToeBase
      direction 0.000000 0.000000 1.000000
      length 2.952750
      axis 0.0 0.0 0.0 xyz
      dof rx ry rz
   end
:hierarchy
   begin
      root Spine_dum LeftUpLeg_dum RightUpLeg_dum
      Spine_dum Spine
      LeftUpLeg_dum LeftUpLeg
      RightUpLeg_dum RightUpLeg
      Spine Spine_dum1 Spine_dum2 Spine_dum3
      Spine_dum1 Head
      Spine_dum2 LeftShoulder
      Spine_dum3 RightShoulder
      LeftShoulder LeftArm
      LeftArm LeftForeArm
      LeftForeArm LeftHand
      LeftHand LeftHand_dum1 LeftHand_dum2
      LeftHand_dum1 LeftHandThumb1
      RightShoulder RightArm
      RightArm RightForeArm
      RightForeArm RightHand
      RightHand RightHand_dum1 RightHand_dum2
      RightHand_dum1 RightHandThumb1
      LeftUpLeg LeftLeg
      LeftLeg LeftFoot
      LeftFoot LeftToeBase
      RightUpLeg RightLeg
      RightLeg RightFoot
      RightFoot RightToeBase
   end

# File created by Blade
# Date/Time:  Tue Apr 07 21:12:38 2015
# Frame Rate: 120.000 fps
#------------------------------------------------------
:FULLY-SPECIFIED
:DEGREES
1
root -0.057812 32.909742 0.980268 2.712784 3.338650 -1.613768
Spine -5.044418 -7.483638 -1.019871
Head 14.375825 -2.171382 0.049197
LeftShoulder -22.621609 43.821403 17.305099
LeftArm 62.326105 -56.717356 -61.843323
LeftForeArm 5.869719 -0.000000 -2.994333
LeftHand 4.016283 -0.000000 5.827676
LeftHandThumb1 -26.253704 0.000000 33.147579
RightShoulder -9.336756 3.691712 -30.155582
RightArm 12.640759 19.843852 40.859306
RightForeArm -10.821636 -0.000000 1.111181
RightHand 5.540360 0.000000 -0.908421
RightHandThumb1 -24.326973 -0.000000 -32.862282
LeftUpLeg 4.652524 -5.537462 0.842252
LeftLeg -4.120124 -0.000000 0.000000
LeftFoot -4.441421 7.847194 -15.629414
LeftToeBase -11.602930 -0.000000 0.000000
RightUpLeg 4.199485 -4.181331 3.372680
RightLeg -3.475064 -0.000000 0.000000
RightFoot -5.729852 -7.987501 7.577329
RightToeBase -2.349129 -0.000000 0.000000
2
root -0.057088 32.910224 0.982177 2.714898 3.361980 -1.611555
Spine -5.031301 -7.511193 -1.015000
Head 14.395371 -2.153314 0.013994
LeftShoulder -22.605945 43.800241 17.310355
LeftArm 62.256833 -56.794587 -61.840956
LeftForeArm 5.930917 -0.000000 -2.950833
LeftHand 3.972127 -0.000000 5.738916
LeftHandThumb1 -26.253704 0.000000 33.147579
RightShoulder -9.326577 3.645164 -30.152780
RightArm 12.655783 19.834045 40.783121
RightForeArm -10.894565 -0.000000 1.117619
RightHand 5.647093 -0.000000 -1.189726
RightHandThumb1 -24.326973 -0.000000 -32.862282
LeftUpLeg 4.641571 -5.524302 0.842668
LeftLeg -4.098897 -0.000000 0.000000
LeftFoot -4.447058 7.806571 -15.625308
LeftToeBase -11.608289 -0.000000 0.000000
RightUpLeg 4.202098 -4.209458 3.369880
RightLeg -3.473873 -0.000000 0.000000
RightFoot -5.739592 -7.983124 7.613448
RightToeBase -2.325675 -0.000000 0.000000
3
root -0.056395 32.910035 0.983250 2.728170 3.387988 -1.595597
Spine -5.022064 -7.526195 -1.036380
Head 14.398174 -2.152758 0.010798
LeftShoulder -22.625277 43.800086 17.299993
LeftArm 62.263599 -56.860072 -61.856936
LeftForeArm 6.005267 0.000000 -2.950417
LeftHand 3.972430 -0.000000 5.701433
LeftHandThumb1 -26.253704 0.000000 33.147579
RightShoulder -9.339957 3.632990 -30.178527
RightArm 12.638016 19.810480 40.750840
RightForeArm -10.906422 -0.000000 1.154162
RightHand 5.635382 -0.000000 -1.203319
RightHandThumb1 -24.326973 -0.000000 -32.862282
LeftUpLeg 4.622994 -5.521205 0.830192
LeftLeg -4.087251 -0.000000 0.000000
LeftFoot -4.449739 7.778288 -15.657248
LeftToeBase -11.588425 -0.000000 0.000000
RightUpLeg 4.190916 -4.260824 3.354957
RightLeg -3.468533 -0.000000 0.000000
RightFoot -5.746102 -7.972922 7.583287
RightToeBase -2.345764 -0.000000 0.000000
4
root -0.056230 32.910154 0.985464 2.739407 3.416932 -1.585923
Spine -5.020190 -7.549815 -1.049353
Head 14.425746 -2.165354 -0.001185
LeftShoulder -22.617636 43.788854 17.293475
LeftArm 62.229695 -56.958483 -61.836150
LeftForeArm 6.076557 -0.000000 -2.956944
LeftHand 3.903694 -0.000000 5.688729
LeftHandThumb1 -26.253704 0.000000 33.147579
RightShoulder -9.329164 3.625797 -30.199475
RightArm 12.596294 19.745998 40.680827
RightForeArm -10.864717 -0.000000 1.180695
RightHand 5.665957 -0.000000 -1.288413
RightHandThumb1 -24.326973 -0.000000 -32.862282
LeftUpLeg 4.607616 -5.527652 0.823482
LeftLeg -4.077881 -0.000000 0.000000
LeftFoot -4.446227 7.759294 -15.650354
LeftToeBase -11.580700 -0.000000 0.000000
RightUpLeg 4.187282 -4.289492 3.347700
RightLeg -3.471981 -0.000000 0.000000
RightFoot -5.760896 -7.974191 7.603294
RightToeBase -2.352288 -0.000000 0.000000
5
root -0.055326 32.909997 0.986757 2.751155 3.447504 -1.569674
Spine -5.016325 -7.571418 -1.072212
Head 14.454275 -2.171581 -0.006002
LeftShoulder -22.582133 43.760161 17.328588
LeftArm 62.172930 -57.055841 -61.831887
LeftForeArm 6.131308 -0.000000 -2.954003
LeftHand 3.950016 -0.000000 5.626714
LeftHandThumb1 -26.253704 0.000000 33.147579
RightShoulder -9.321560 3.603314 -30.213302
RightArm 12.579495 19.741023 40.617395
RightForeArm -10.900861 -0.000000 1.189677
RightHand 5.629140 0.000000 -1.134622
RightHandThumb1 -24.326973 -0.000000 -32.862282
LeftUpLeg 4.585398 -5.527841 0.812366
LeftLeg -4.053999 -0.000000 0.000000
LeftFoot -4.450884 7.708225 -15.658143
LeftToeBase -11.603323 -0.000000 0.000000
RightUpLeg 4.182685 -4.328381 3.330769
RightLeg -3.473701 -0.000000 0.000000
RightFoot -5.779677 -7.960107 7.601849
RightToeBase -2.327670 -0.000000 0.000000
6
root -0.055878 32.909978 0.988151 2.761302 3.482074 -1.559717
Spine -5.009123 -7.609202 -1.092094
Head 14.485763 -2.171008 0.001801
LeftShoulder -22.563970 43.742863 17.348834
LeftArm 62.114690 -57.168752 -61.819891
LeftForeArm 6.165077 0.000000 -2.944727
LeftHand 3.922535 0.000000 5.657035
LeftHandThumb1 -26.253704 0.000000 33.147579
RightShoulder -9.315040 3.574230 -30.214352
RightArm 12.588036 19.731010 40.547300
RightForeArm -10.955064 -0.000000 1.190052
RightHand 5.615139 0.000000 -1.011760
RightHandThumb1 -24.326973 -0.000000 -32.862282
LeftUpLeg 4.561196 -5.522619 0.808913
LeftLeg -4.025251 -0.000000 0.000000
LeftFoot -4.461974 7.665648 -15.681960
LeftToeBase -11.597934 -0.000000 0.000000
RightUpLeg 4.177759 -4.367998 3.324212
RightLeg -3.473887 -0.000000 0.000000
RightFoot -5.804054 -7.946184 7.654910
RightToeBase -2.290699 -0.000000 0.000000
7
root -0.055523 32.909888 0.990230 2.770464 3.508836 -1.546448
Spine -5.004647 -7.624613 -1.117629
Head 14.528029 -2.189614 0.011502
LeftShoulder -22.529704 43.743858 17.389555
LeftArm 62.106861 -57.291720 -61.870057
LeftForeArm 6.207179 0.000000 -2.939612
LeftHand 3.906780 -0.000000 5.662747
LeftHandThumb1 -26.253704 0.000000 33.147579
RightShoulder -9.314771 3.555182 -30.216944
RightArm 12.581811 19.655712 40.450906
RightForeArm -11.103190 -0.000000 1.169303
RightHand 5.595014 -0.000000 -0.853693
RightHandThumb1 -24.326973 -0.000000 -32.862282
LeftUpLeg 4.544533 -5.527992 0.795431
LeftLeg -4.001000 -0.000000 0.000000
LeftFoot -4.520140 7.695373 -15.490591
LeftToeBase -11.295548 -0.000000 0.000000
RightUpLeg 4.173367 -4.398263 3.313335
RightLeg -3.471512 -0.000000 0.000000
RightFoot -5.822081 -7.958943 7.641533
RightToeBase -2.266693 -0.000000 0.000000
8
root -0.055919 32.909410 0.993733 2.770174 3.541046 -1.536240
Spine -4.993616 -7.643192 -1.140935
Head 14.574541 -2.213377 0.009226
LeftShoulder -22.500483 43.752464 17.411967
LeftArm 62.092466 -57.432904 -61.877312
LeftForeArm 6.161568 -0.000000 -2.956205
LeftHand 3.876056 -0.000000 5.613237
LeftHandThumb1 -26.253704 0.000000 33.147579
RightShoulder -9.317749 3.509283 -30.220243
RightArm 12.605889 19.577461 40.348449
RightForeArm -11.126104 -0.000000 1.118762
RightHand 5.562092 -0.000000 -0.956933
RightHandThumb1 -24.326973 -0.000000 -32.862282
LeftUpLeg 4.540130 -5.533744 0.789793
LeftLeg -3.980139 -0.000000 0.000000
LeftFoot -4.533195 7.661420 -15.493960
LeftToeBase -11.256794 -0.000000 0.000000
RightUpLeg 4.189485 -4.439150 3.305268
RightLeg -3.484020 -0.000000 0.000000
RightFoot -5.827332 -7.952284 7.653158
RightToeBase -2.264055 -0.000000 0.000000
9
root -0.056144 32.908501 0.996727 2.768322 3.581943 -1.532583
Spine -4.976953 -7.664917 -1.157734
Head 14.610889 -2.255456 0.007027
LeftShoulder -22.466808 43.755789 17.464123
LeftArm 62.133177 -57.575544 -61.972105
LeftForeArm 6.186256 -0.000000 -2.989838
LeftHand 3.849270 0.000000 5.694024
LeftHandThumb1 -26.253704 0.000000 33.147579
RightShoulder -9.328379 3.491315 -30.251507
RightArm 12.605972 19.511126 40.271164
RightForeArm -11.233788 -0.000000 1.063275
RightHand 5.447391 0.000000 -0.697936
RightHandThumb1 -24.326973 -0.000000 -32.862282
LeftUpLeg 4.528862 -5.541143 0.795567
LeftLeg -3.956111 -0.000000 0.000000
LeftFoot -4.501774 7.555277 -15.716156
LeftToeBase -11.571429 -0.000000 0.000000
RightUpLeg 4.202471 -4.504641 3.298802
RightLeg -3.490835 -0.000000 0.000000
RightFoot -5.837027 -7.914148 7.697761
RightToeBase -2.326638 -0.000000 0.000000
